<?xml version="1.0" encoding="UTF-8" standalone="no"?>
<svg
   height="800"
   width="1200"
   viewBox="-149.85 -75.81525 1298.7 454.8915"
   version="1.1"
   id="svg2"
   sodipodi:docname="Logitech.svg"
   xmlns:inkscape="http://www.inkscape.org/namespaces/inkscape"
   xmlns:sodipodi="http://sodipodi.sourceforge.net/DTD/sodipodi-0.dtd"
   xmlns="http://www.w3.org/2000/svg"
   xmlns:svg="http://www.w3.org/2000/svg">
  <defs
     id="defs2" />
  <sodipodi:namedview
     id="namedview2"
     pagecolor="#ffffff"
     bordercolor="#000000"
     borderopacity="0.25"
     inkscape:showpageshadow="2"
     inkscape:pageopacity="0.0"
     inkscape:pagecheckerboard="0"
     inkscape:deskcolor="#d1d1d1"
     showgrid="false"
     inkscape:export-bgcolor="#ffffffff" />
  <g
     transform="translate(-65,-1152.708)"
     id="g2">
    <path
       d="m 65,1367.22 v -210.07 h 36.901 v 210.068 z m 131.36,-152.398 c -47.312,0 -80.053,36.377 -80.053,78.014 0,46.47 35.618,78.481 80.42,78.481 42.52,0 79.417,-31.423 79.417,-78.581 0,-39.656 -30.574,-77.914 -79.785,-77.914 z m -0.435,35.598 c 24.76,0 42.984,19.273 42.984,42.55 0,24.68 -20.093,42.683 -42.316,42.683 -26.258,0 -42.783,-20.812 -42.783,-42.617 0,-23.9 18.657,-42.616 42.115,-42.616 z m 172.933,-35.598 c -47.312,0 -80.052,36.377 -80.052,78.014 0,46.47 35.618,78.481 80.42,78.481 42.52,0 79.417,-31.423 79.417,-78.581 0,-27.77 -12.026,-40.093 -12.026,-40.093 l 10.228,-3.507 v -29.949 h -52.41 c 0,0 -11.362,-4.364 -25.577,-4.364 z m -0.434,35.598 c 24.76,0 42.984,19.273 42.984,42.55 0,24.68 -20.093,42.683 -42.316,42.683 -26.258,0 -42.784,-20.812 -42.784,-42.617 0,-23.9 18.658,-42.616 42.116,-42.616 z m 42.723,127.067 c 0,24.68 -20.093,42.817 -42.316,42.817 -26.258,0 -42.85,-21.012 -42.85,-42.817 h -37.436 c 0,46.47 35.618,78.482 80.42,78.482 42.52,0 79.417,-31.323 79.417,-78.482 z m 52.276,-10.267 v -148.033 h 36.901 v 148.032 z m 72.733,0 v -114.875 h -19.788 v -33.158 h 19.788 v -45.457 h 36.9 v 45.457 h 20.323 v 33.158 h -20.322 v 114.874 z"
       id="path1" />
    <circle
       r="19.316999"
       cy="386.789"
       cx="467.789"
       id="circle1"
       transform="matrix(1.26496,0,0,1.26496,-109.936,687.873)" />
    <path
       d="m 676.34,1214.722 c -47.537,0 -78.181,36.396 -78.181,79.451 0,44.493 30.746,77.245 78.95,77.245 44.964,0 67.083,-28.077 67.083,-28.077 l -24.668,-24.701 c 0,0 -18.625,20.088 -41.948,20.088 -19.442,0 -34.987,-10.851 -40.41,-30.75 h 114.98 v -10.162 c 0,-40.544 -23.466,-83.094 -75.807,-83.094 z m -1.17,32.49 c 16.998,0 34.383,9.093 38.27,30.817 h -77.277 c 3.06,-15.27 16.42,-30.818 39.006,-30.818 z m 169.277,124.225 c -47.67,0 -80.152,-36.308 -80.152,-79.117 0,-44.178 36.71,-77.626 80,-77.626 41.847,0 63.268,29.543 63.268,29.543 l -25.742,25.624 c 0,0 -14.911,-19.265 -37.702,-19.265 -25.26,0 -42.531,19.322 -42.531,42.291 0,24.252 18.373,42.86 42.247,42.86 23.158,0 37.95,-19.236 37.95,-19.236 l 26,25.612 c 0,0 -21.213,29.314 -63.338,29.314 z m 76.763,-4.111 v -210.71 h 36.9 v 77.416 c 0,0 14.13,-19.338 44.865,-19.338 38.64,0 61.025,28.724 61.025,65.46 v 87.172 h -36.901 v -81.595 c 0,-24.68 -15.366,-34.92 -32.388,-34.92 -19.394,0 -36.6,11.038 -36.6,36.83 v 79.685 z"
       id="path2" />
  </g>
</svg>
